<?xml version="1.0" encoding="utf-8"?>
<!-- Generator: Adobe Illustrator 25.2.1, SVG Export Plug-In . SVG Version: 6.00 Build 0)  -->
<svg version="1.1" id="Layer_1" xmlns="http://www.w3.org/2000/svg" xmlns:xlink="http://www.w3.org/1999/xlink" x="0px" y="0px"
	 viewBox="0 0 1344.5 264" style="enable-background:new 0 0 1344.5 264;" xml:space="preserve">
<style type="text/css">
	.st0{fill:#FFFFFF;}
	.st1{clip-path:url(#SVGID_2_);fill:#FFFFFF;}
	.st2{clip-path:url(#SVGID_4_);fill:#FFFFFF;}
</style>
<g>
	<path class="st0" d="M591.2,126.7V64c0-16-13-28.9-28.9-28.9h-48.9l-39.7,55.3h51.8C562.9,90.4,587.8,106.8,591.2,126.7z"/>
	<path class="st0" d="M529.6,94.9v152.8h61.6V137.2C580.9,95.9,535.8,94.8,529.6,94.9z"/>
</g>
<g>
	<path class="st0" d="M253.7,102.9c-2.1-1.3-5-2.9-8.6-4.5c-2.7-1.2-14.3-6.1-30.3-6.1c-12.6,0-24.5,2.9-35.4,8.5
		c-8.3,4.3-15.7,10-21.8,16.7c-6.2-6.8-13.4-12.4-21.7-16.7c-10.7-5.7-22.7-8.5-35.5-8.5c-10.6,0-20.7,2-30.1,6.1
		c-9.4,4-17.7,9.6-24.7,16.6S33,130.3,29,139.5c-4,9.3-6.1,19.5-6.1,30.3v77.9h41v-77.9c0-5,0.9-9.8,2.8-14.2s4.5-8.3,7.9-11.7
		c3.3-3.3,7.2-6,11.7-7.9c4.4-1.9,9.1-2.8,14.2-2.8c5.1,0,9.9,1,14.4,2.8c4.5,1.9,8.5,4.5,11.8,7.8s6,7.3,7.9,11.7s2.8,9.1,2.8,14.2
		v77.9h41v-77.9c0-5,1-9.8,2.8-14.2c1.9-4.4,4.5-8.3,7.9-11.7c3.3-3.3,7.2-6,11.7-7.9c4.4-1.9,9.1-2.8,14.2-2.8s9.9,1,14.4,2.8
		c4.5,1.9,8.5,4.5,11.8,7.8s6,7.3,7.9,11.7c1.2,2.9,2,5.9,2.4,9.1c0.8-17.4,1.6-34.8,2.4-52.2c-0.2-1.4-0.4-3.1-0.4-5
		C253.2,105.7,253.5,104.2,253.7,102.9z"/>
	<g>
		<g>
			<defs>
				<path id="SVGID_1_" d="M295.1,98.5c1.9-4.4,4.5-8.3,7.9-11.7c3.3-3.3,7.3-6,11.8-7.8c4.5-1.9,9.3-2.8,14.4-2.8h20.4V35.1h-20.4
					c-10.6,0-20.7,2-30.1,6.1c-9.4,4-17.7,9.6-24.8,16.6c-7.1,7-12.8,15.3-16.8,24.6c-2.6,6.1-4.4,12.6-5.3,19.4
					c-0.5,3.6-0.7,7.2-0.7,10.9v52.1c0.2,1.7,0.4,3.3,0.4,5.1v77.9h40.6h0.4v-77.9c0-2.7-0.1-5.3-0.4-7.9l0,0h57.2v-41h-57.2v-8.2
					C292.3,107.6,293.2,102.8,295.1,98.5z"/>
			</defs>
			<use xlink:href="#SVGID_1_"  style="overflow:visible;fill:#FFFFFF;"/>
			<clipPath id="SVGID_2_">
				<use xlink:href="#SVGID_1_"  style="overflow:visible;"/>
			</clipPath>
			<rect x="251.5" y="35.1" class="st1" width="0.8" height="212.7"/>
			<rect x="252.4" y="35.1" class="st1" width="1.1" height="212.7"/>
			<rect x="253.5" y="35.1" class="st1" width="1.1" height="212.7"/>
			<rect x="254.6" y="35.1" class="st1" width="1.1" height="212.7"/>
			<rect x="255.7" y="35.1" class="st1" width="1.1" height="212.7"/>
			<rect x="256.8" y="35.1" class="st1" width="1.1" height="212.7"/>
			<rect x="258" y="35.1" class="st1" width="1.1" height="212.7"/>
			<rect x="259.1" y="35.1" class="st1" width="1.1" height="212.7"/>
			<rect x="260.2" y="35.1" class="st1" width="1.1" height="212.7"/>
			<rect x="261.3" y="35.1" class="st1" width="1.1" height="212.7"/>
			<rect x="262.4" y="35.1" class="st1" width="1.1" height="212.7"/>
			<rect x="263.5" y="35.1" class="st1" width="1.1" height="212.7"/>
			<rect x="264.7" y="35.1" class="st1" width="1.1" height="212.7"/>
			<rect x="265.8" y="35.1" class="st1" width="1.1" height="212.7"/>
			<rect x="266.9" y="35.1" class="st1" width="1.1" height="212.7"/>
			<rect x="268" y="35.1" class="st1" width="1.1" height="212.7"/>
			<rect x="269.1" y="35.1" class="st1" width="1.1" height="212.7"/>
			<rect x="270.2" y="35.1" class="st1" width="1.1" height="212.7"/>
			<rect x="271.4" y="35.1" class="st1" width="1.1" height="212.7"/>
			<rect x="272.5" y="35.1" class="st1" width="1.1" height="212.7"/>
			<rect x="273.6" y="35.1" class="st1" width="1.1" height="212.7"/>
			<rect x="274.7" y="35.1" class="st1" width="1.1" height="212.7"/>
			<rect x="275.8" y="35.1" class="st1" width="1.1" height="212.7"/>
			<rect x="276.9" y="35.1" class="st1" width="1.1" height="212.7"/>
			<rect x="278.1" y="35.1" class="st1" width="1.1" height="212.7"/>
			<rect x="279.2" y="35.1" class="st1" width="1.1" height="212.7"/>
			<rect x="280.3" y="35.1" class="st1" width="1.1" height="212.7"/>
			<rect x="281.4" y="35.1" class="st1" width="1.1" height="212.7"/>
			<rect x="282.5" y="35.1" class="st1" width="1.1" height="212.7"/>
			<rect x="283.6" y="35.1" class="st1" width="1.1" height="212.7"/>
			<rect x="284.7" y="35.1" class="st1" width="1.1" height="212.7"/>
			<rect x="285.9" y="35.1" class="st1" width="1.1" height="212.7"/>
			<rect x="287" y="35.1" class="st1" width="1.1" height="212.7"/>
			<rect x="288.1" y="35.1" class="st1" width="1.1" height="212.7"/>
			<rect x="289.2" y="35.1" class="st1" width="1.1" height="212.7"/>
			<rect x="290.3" y="35.1" class="st1" width="1.1" height="212.7"/>
			<rect x="291.4" y="35.1" class="st1" width="1.1" height="212.7"/>
			<rect x="292.6" y="35.1" class="st1" width="1.1" height="212.7"/>
			<rect x="293.7" y="35.1" class="st1" width="1.1" height="212.7"/>
			<rect x="294.8" y="35.1" class="st1" width="1.1" height="212.7"/>
			<rect x="295.9" y="35.1" class="st1" width="1.1" height="212.7"/>
			<rect x="297" y="35.1" class="st1" width="1.1" height="212.7"/>
			<rect x="298.1" y="35.1" class="st1" width="1.1" height="212.7"/>
			<rect x="299.3" y="35.1" class="st1" width="1.1" height="212.7"/>
			<rect x="300.4" y="35.1" class="st1" width="1.1" height="212.7"/>
			<rect x="301.5" y="35.1" class="st1" width="1.1" height="212.7"/>
			<rect x="302.6" y="35.1" class="st1" width="1.1" height="212.7"/>
			<rect x="303.7" y="35.1" class="st1" width="1.1" height="212.7"/>
			<rect x="304.8" y="35.1" class="st1" width="1.1" height="212.7"/>
			<rect x="305.9" y="35.1" class="st1" width="1.1" height="212.7"/>
			<rect x="307.1" y="35.1" class="st1" width="1.1" height="212.7"/>
			<rect x="308.2" y="35.1" class="st1" width="1.1" height="212.7"/>
			<rect x="309.3" y="35.1" class="st1" width="1.1" height="212.7"/>
			<rect x="310.4" y="35.1" class="st1" width="1.1" height="212.7"/>
			<rect x="311.5" y="35.1" class="st1" width="1.1" height="212.7"/>
			<rect x="312.6" y="35.1" class="st1" width="1.1" height="212.7"/>
			<rect x="313.8" y="35.1" class="st1" width="1.1" height="212.7"/>
			<rect x="314.9" y="35.1" class="st1" width="1.1" height="212.7"/>
			<rect x="316" y="35.1" class="st1" width="1.1" height="212.7"/>
			<rect x="317.1" y="35.1" class="st1" width="1.1" height="212.7"/>
			<rect x="318.2" y="35.1" class="st1" width="1.1" height="212.7"/>
			<rect x="319.3" y="35.1" class="st1" width="1.1" height="212.7"/>
			<rect x="320.5" y="35.1" class="st1" width="1.1" height="212.7"/>
			<rect x="321.6" y="35.1" class="st1" width="1.1" height="212.7"/>
			<rect x="322.7" y="35.1" class="st1" width="1.1" height="212.7"/>
			<rect x="323.8" y="35.1" class="st1" width="1.1" height="212.7"/>
			<rect x="324.9" y="35.1" class="st1" width="1.1" height="212.7"/>
			<rect x="326" y="35.1" class="st1" width="1.1" height="212.7"/>
			<rect x="327.2" y="35.1" class="st1" width="1.1" height="212.7"/>
			<rect x="328.3" y="35.1" class="st1" width="1.1" height="212.7"/>
			<rect x="329.4" y="35.1" class="st1" width="1.1" height="212.7"/>
			<rect x="330.5" y="35.1" class="st1" width="1.1" height="212.7"/>
			<rect x="331.6" y="35.1" class="st1" width="1.1" height="212.7"/>
			<rect x="332.7" y="35.1" class="st1" width="1.1" height="212.7"/>
			<rect x="333.8" y="35.1" class="st1" width="1.1" height="212.7"/>
			<rect x="335" y="35.1" class="st1" width="1.1" height="212.7"/>
			<rect x="336.1" y="35.1" class="st1" width="1.1" height="212.7"/>
			<rect x="337.2" y="35.1" class="st1" width="1.1" height="212.7"/>
			<rect x="338.3" y="35.1" class="st1" width="1.1" height="212.7"/>
			<rect x="339.4" y="35.1" class="st1" width="1.1" height="212.7"/>
			<rect x="340.5" y="35.1" class="st1" width="1.1" height="212.7"/>
			<rect x="341.7" y="35.1" class="st1" width="1.1" height="212.7"/>
			<rect x="342.8" y="35.1" class="st1" width="1.1" height="212.7"/>
			<rect x="343.9" y="35.1" class="st1" width="1.1" height="212.7"/>
			<rect x="345" y="35.1" class="st1" width="1.1" height="212.7"/>
			<rect x="346.1" y="35.1" class="st1" width="1.1" height="212.7"/>
			<rect x="347.2" y="35.1" class="st1" width="1.1" height="212.7"/>
			<rect x="348.4" y="35.1" class="st1" width="1.1" height="212.7"/>
			<rect x="349.5" y="35.1" class="st1" width="0.3" height="212.7"/>
		</g>
	</g>
</g>
<g>
	<g>
		<defs>
			<path id="SVGID_3_" d="M480.1,217.6H349.6v-14.5c0-11.3,9.2-20.5,20.5-20.5h129.5v15.5C499.6,208.8,490.9,217.6,480.1,217.6z"/>
		</defs>
		<use xlink:href="#SVGID_3_"  style="overflow:visible;fill:#FFFFFF;"/>
		<clipPath id="SVGID_4_">
			<use xlink:href="#SVGID_3_"  style="overflow:visible;"/>
		</clipPath>
		<path class="st2" d="M349.6,182.6v35V182.6z"/>
		<rect x="349.6" y="182.6" class="st2" width="1.7" height="35"/>
		<rect x="351.3" y="182.6" class="st2" width="1.7" height="35"/>
		<rect x="353.1" y="182.6" class="st2" width="1.7" height="35"/>
		<rect x="354.8" y="182.6" class="st2" width="1.7" height="35"/>
		<rect x="356.5" y="182.6" class="st2" width="1.7" height="35"/>
		<rect x="358.2" y="182.6" class="st2" width="1.7" height="35"/>
		<rect x="359.9" y="182.6" class="st2" width="1.7" height="35"/>
		<rect x="361.6" y="182.6" class="st2" width="1.7" height="35"/>
		<rect x="363.3" y="182.6" class="st2" width="1.7" height="35"/>
		<rect x="365" y="182.6" class="st2" width="1.7" height="35"/>
		<rect x="366.7" y="182.6" class="st2" width="1.7" height="35"/>
		<rect x="368.4" y="182.6" class="st2" width="1.7" height="35"/>
		<rect x="370.1" y="182.6" class="st2" width="1.7" height="35"/>
		<rect x="371.8" y="182.6" class="st2" width="1.7" height="35"/>
		<rect x="373.5" y="182.6" class="st2" width="1.7" height="35"/>
		<rect x="375.2" y="182.6" class="st2" width="1.7" height="35"/>
		<rect x="376.9" y="182.6" class="st2" width="1.7" height="35"/>
		<rect x="378.6" y="182.6" class="st2" width="1.7" height="35"/>
		<rect x="380.3" y="182.6" class="st2" width="1.7" height="35"/>
		<rect x="382" y="182.6" class="st2" width="1.7" height="35"/>
		<rect x="383.7" y="182.6" class="st2" width="1.7" height="35"/>
		<rect x="385.4" y="182.6" class="st2" width="1.7" height="35"/>
		<rect x="387.1" y="182.6" class="st2" width="1.7" height="35"/>
		<rect x="388.8" y="182.6" class="st2" width="1.7" height="35"/>
		<rect x="390.6" y="182.6" class="st2" width="1.7" height="35"/>
		<rect x="392.3" y="182.6" class="st2" width="1.7" height="35"/>
		<rect x="394" y="182.6" class="st2" width="1.7" height="35"/>
		<rect x="395.7" y="182.6" class="st2" width="1.7" height="35"/>
		<rect x="397.4" y="182.6" class="st2" width="1.7" height="35"/>
		<rect x="399.1" y="182.6" class="st2" width="1.7" height="35"/>
		<rect x="400.8" y="182.6" class="st2" width="1.7" height="35"/>
		<rect x="402.5" y="182.6" class="st2" width="1.7" height="35"/>
		<rect x="404.2" y="182.6" class="st2" width="1.7" height="35"/>
		<rect x="405.9" y="182.6" class="st2" width="1.7" height="35"/>
		<rect x="407.6" y="182.6" class="st2" width="1.7" height="35"/>
		<rect x="409.3" y="182.6" class="st2" width="1.7" height="35"/>
		<rect x="411" y="182.6" class="st2" width="1.7" height="35"/>
		<rect x="412.7" y="182.6" class="st2" width="1.7" height="35"/>
		<rect x="414.4" y="182.6" class="st2" width="1.7" height="35"/>
		<rect x="416.1" y="182.6" class="st2" width="1.7" height="35"/>
		<rect x="417.8" y="182.6" class="st2" width="1.7" height="35"/>
		<rect x="419.5" y="182.6" class="st2" width="1.7" height="35"/>
		<rect x="421.2" y="182.6" class="st2" width="1.7" height="35"/>
		<rect x="422.9" y="182.6" class="st2" width="1.7" height="35"/>
		<rect x="424.6" y="182.6" class="st2" width="1.7" height="35"/>
		<rect x="426.3" y="182.6" class="st2" width="1.7" height="35"/>
		<rect x="428.1" y="182.6" class="st2" width="1.7" height="35"/>
		<rect x="429.8" y="182.6" class="st2" width="1.7" height="35"/>
		<rect x="431.5" y="182.6" class="st2" width="1.7" height="35"/>
		<rect x="433.2" y="182.6" class="st2" width="1.7" height="35"/>
		<rect x="434.9" y="182.6" class="st2" width="1.7" height="35"/>
		<rect x="436.6" y="182.6" class="st2" width="1.7" height="35"/>
		<rect x="438.3" y="182.6" class="st2" width="1.7" height="35"/>
		<rect x="440" y="182.6" class="st2" width="1.7" height="35"/>
		<rect x="441.7" y="182.6" class="st2" width="1.7" height="35"/>
		<rect x="443.4" y="182.6" class="st2" width="1.7" height="35"/>
		<rect x="445.1" y="182.6" class="st2" width="1.7" height="35"/>
		<rect x="446.8" y="182.6" class="st2" width="1.7" height="35"/>
		<rect x="448.5" y="182.6" class="st2" width="1.7" height="35"/>
		<rect x="450.2" y="182.6" class="st2" width="1.7" height="35"/>
		<rect x="451.9" y="182.6" class="st2" width="1.7" height="35"/>
		<rect x="453.6" y="182.6" class="st2" width="1.7" height="35"/>
		<rect x="455.3" y="182.6" class="st2" width="1.7" height="35"/>
		<rect x="457" y="182.6" class="st2" width="1.7" height="35"/>
		<rect x="458.7" y="182.6" class="st2" width="1.7" height="35"/>
		<rect x="460.4" y="182.6" class="st2" width="1.7" height="35"/>
		<rect x="462.1" y="182.6" class="st2" width="1.7" height="35"/>
		<rect x="463.8" y="182.6" class="st2" width="1.7" height="35"/>
		<rect x="465.6" y="182.6" class="st2" width="1.7" height="35"/>
		<rect x="467.3" y="182.6" class="st2" width="1.7" height="35"/>
		<rect x="469" y="182.6" class="st2" width="1.7" height="35"/>
		<rect x="470.7" y="182.6" class="st2" width="1.7" height="35"/>
		<rect x="472.4" y="182.6" class="st2" width="1.7" height="35"/>
		<rect x="474.1" y="182.6" class="st2" width="1.7" height="35"/>
		<rect x="475.8" y="182.6" class="st2" width="1.7" height="35"/>
		<rect x="477.5" y="182.6" class="st2" width="1.7" height="35"/>
		<rect x="479.2" y="182.6" class="st2" width="1.7" height="35"/>
		<rect x="480.9" y="182.6" class="st2" width="1.7" height="35"/>
		<rect x="482.6" y="182.6" class="st2" width="1.7" height="35"/>
		<rect x="484.3" y="182.6" class="st2" width="1.7" height="35"/>
		<rect x="486" y="182.6" class="st2" width="1.7" height="35"/>
		<rect x="487.7" y="182.6" class="st2" width="1.7" height="35"/>
		<rect x="489.4" y="182.6" class="st2" width="1.7" height="35"/>
		<rect x="491.1" y="182.6" class="st2" width="1.7" height="35"/>
		<rect x="492.8" y="182.6" class="st2" width="1.7" height="35"/>
		<rect x="494.5" y="182.6" class="st2" width="1.7" height="35"/>
		<rect x="496.2" y="182.6" class="st2" width="1.7" height="35"/>
		<rect x="497.9" y="182.6" class="st2" width="1.7" height="35"/>
		<path class="st2" d="M499.6,217.6v-35V217.6z"/>
	</g>
</g>
<rect x="628.6" y="14" class="st0" width="4" height="250"/>
<path class="st0" d="M675.7,244.8v-114h-20.9v-28h21.2V90.8c0-16,4.5-28.3,13.8-36.9c8.9-8.9,22-13,38.4-13c5.2,0,11.6,0.7,19.4,2.6
	l-0.4,29.4c-3-0.7-7.1-1.1-11.6-1.1c-14.2,0-21.2,6.7-21.2,20.1v11.6h28.3v28h-28.3v114h-38.8V244.8z"/>
<path class="st0" d="M761.4,66.2c0-5.6,1.9-10.4,5.6-14.2c3.7-3.7,8.9-5.6,15.7-5.6c6.3,0,11.6,1.9,15.3,5.6
	c3.7,3.7,5.6,8.2,5.6,14.2c0,5.6-1.9,10.4-6,14.2c-3.7,3.7-8.9,5.6-15.3,5.6s-11.6-1.9-15.3-5.6C763.3,76.7,761.4,71.8,761.4,66.2z
	 M801.7,244.8h-38V103.1h38V244.8z"/>
<path class="st0" d="M886.7,145.2l23.9-42.5h40.6l-40.3,69.7l42.1,72.3h-41L886.7,200l-25.3,44.7h-40.3l42.1-72.3l-40.3-69.7h40.6
	L886.7,145.2z"/>
<path class="st0" d="M1051.4,244.8c-1.9-3.4-3-7.8-3.7-12.7c-9.3,10.1-21.2,15.3-35.8,15.3c-13.8,0-25.3-4.1-34.7-11.9
	c-8.9-8.2-13.8-18.3-13.8-30.6c0-14.9,5.6-26.5,16.8-34.7c11.2-8.2,27.2-11.9,48.5-12.3h17.5v-8.2c0-6.7-1.9-11.9-5.2-15.7
	c-3.4-4.1-8.6-6-16-6c-6.3,0-11.6,1.5-14.9,4.5c-3.7,3-5.6,7.1-5.6,12.7h-37.6c0-8.2,2.6-15.7,7.5-22.7c5.2-7.1,12.3-12.3,21.6-16.4
	c9.3-4.1,19.8-6,31.3-6c17.5,0,31.3,4.5,41.7,13c10.4,8.6,15.3,21.2,15.3,36.9v61.5c0,13.4,1.9,23.5,5.6,30.6v2.2h-38.4V244.8z
	 M1020.1,218.3c5.6,0,10.8-1.1,15.3-3.7s8.2-6,10.4-10.1v-24.2h-14.2c-19,0-29.1,6.7-30.2,19.8v2.2c0,4.8,1.5,8.6,4.8,11.6
	C1009.6,216.8,1014.5,218.3,1020.1,218.3z"/>
<path class="st0" d="M1158.4,68.1v35h24.2v28h-24.2v70.8c0,5.2,1.1,8.9,3,11.2c1.9,2.2,6,3.4,11.6,3.4c4.1,0,7.8-0.4,11.2-0.7v28.7
	c-7.5,2.2-14.9,3.4-23.1,3.4c-26.5,0-40.3-13.4-40.6-40.3v-76.8h-20.9v-28h20.9v-35h38V68.1z"/>
<path class="st0" d="M1194.1,172.5c0-14.2,2.6-26.5,8.2-37.6c5.6-11.2,13-19.4,23.5-25.7s22-8.9,35.4-8.9c19,0,34.7,6,47,17.5
	c11.9,11.6,19,27.6,20.1,47.7l0.4,9.7c0,21.6-6,39.1-18.3,52.2c-12.3,13-28.3,19.8-48.8,19.8s-36.9-6.7-48.8-19.8
	s-18.3-30.9-18.3-53.3v-1.5H1194.1z M1231.8,175.1c0,13.4,2.6,23.9,7.5,30.9c5.2,7.1,12.3,10.8,21.6,10.8s16.4-3.4,21.6-10.4
	c5.2-7.1,7.8-18.3,7.8-33.9c0-13-2.6-23.5-7.8-30.6c-5.2-7.1-12.3-10.8-21.6-10.8s-16.4,3.7-21.6,10.8
	C1234.4,149,1231.8,160.2,1231.8,175.1z"/>
<circle class="st0" cx="783" cy="64.4" r="22.4"/>
</svg>
